<mxfile host="app.diagrams.net" modified="2024-03-26T18:17:04.293Z" agent="Mozilla/5.0 (Windows NT 10.0; Win64; x64) AppleWebKit/537.36 (KHTML, like Gecko) Chrome/122.0.0.0 Safari/537.36 OPR/108.0.0.0" etag="nVEqOvDysCxaYaGiKQbw" version="24.1.0" type="github">
  <diagram id="R2lEEEUBdFMjLlhIrx00" name="Page-1">
    <mxGraphModel dx="1648" dy="409" grid="1" gridSize="10" guides="1" tooltips="1" connect="1" arrows="1" fold="1" page="1" pageScale="1" pageWidth="850" pageHeight="1100" math="0" shadow="0" extFonts="Permanent Marker^https://fonts.googleapis.com/css?family=Permanent+Marker">
      <root>
        <mxCell id="0" />
        <mxCell id="1" parent="0" />
        <mxCell id="gi4ZsK4OsF2OfESMto85-1" value="Imperio" style="whiteSpace=wrap;html=1;align=center;" parent="1" vertex="1">
          <mxGeometry x="90" y="180" width="100" height="40" as="geometry" />
        </mxCell>
        <mxCell id="gi4ZsK4OsF2OfESMto85-2" value="" style="endArrow=none;html=1;rounded=0;exitX=0.25;exitY=1;exitDx=0;exitDy=0;entryX=0.5;entryY=0;entryDx=0;entryDy=0;" parent="1" source="gi4ZsK4OsF2OfESMto85-1" target="gi4ZsK4OsF2OfESMto85-3" edge="1">
          <mxGeometry relative="1" as="geometry">
            <mxPoint x="170" y="310" as="sourcePoint" />
            <mxPoint x="115" y="270" as="targetPoint" />
            <Array as="points">
              <mxPoint x="115" y="240" />
              <mxPoint x="70" y="240" />
              <mxPoint x="25" y="240" />
            </Array>
          </mxGeometry>
        </mxCell>
        <mxCell id="gi4ZsK4OsF2OfESMto85-3" value="codigoImperio" style="ellipse;whiteSpace=wrap;html=1;align=center;fontStyle=4;" parent="1" vertex="1">
          <mxGeometry x="-25" y="248" width="100" height="40" as="geometry" />
        </mxCell>
        <mxCell id="gi4ZsK4OsF2OfESMto85-6" value="" style="endArrow=none;html=1;rounded=0;exitX=0.75;exitY=1;exitDx=0;exitDy=0;entryX=0;entryY=0.5;entryDx=0;entryDy=0;" parent="1" source="gi4ZsK4OsF2OfESMto85-1" target="gi4ZsK4OsF2OfESMto85-7" edge="1">
          <mxGeometry relative="1" as="geometry">
            <mxPoint x="170" y="310" as="sourcePoint" />
            <mxPoint x="180" y="310" as="targetPoint" />
            <Array as="points">
              <mxPoint x="165" y="240" />
              <mxPoint x="180" y="240" />
            </Array>
          </mxGeometry>
        </mxCell>
        <mxCell id="gi4ZsK4OsF2OfESMto85-7" value="nombre" style="ellipse;whiteSpace=wrap;html=1;align=center;" parent="1" vertex="1">
          <mxGeometry x="210" y="220" width="100" height="40" as="geometry" />
        </mxCell>
        <mxCell id="gi4ZsK4OsF2OfESMto85-8" value="" style="endArrow=none;html=1;rounded=0;exitX=0.75;exitY=0;exitDx=0;exitDy=0;" parent="1" source="gi4ZsK4OsF2OfESMto85-1" target="gi4ZsK4OsF2OfESMto85-10" edge="1">
          <mxGeometry relative="1" as="geometry">
            <mxPoint x="170" y="310" as="sourcePoint" />
            <mxPoint x="165" y="170" as="targetPoint" />
          </mxGeometry>
        </mxCell>
        <mxCell id="gi4ZsK4OsF2OfESMto85-10" value="armamento" style="ellipse;shape=doubleEllipse;margin=3;whiteSpace=wrap;html=1;align=center;" parent="1" vertex="1">
          <mxGeometry x="115" y="130" width="100" height="40" as="geometry" />
        </mxCell>
        <mxCell id="gi4ZsK4OsF2OfESMto85-11" value="" style="endArrow=none;html=1;rounded=0;exitX=0.25;exitY=0;exitDx=0;exitDy=0;" parent="1" source="gi4ZsK4OsF2OfESMto85-1" target="gi4ZsK4OsF2OfESMto85-12" edge="1">
          <mxGeometry relative="1" as="geometry">
            <mxPoint x="170" y="310" as="sourcePoint" />
            <mxPoint x="60" y="150" as="targetPoint" />
            <Array as="points">
              <mxPoint x="115" y="160" />
              <mxPoint x="100" y="160" />
              <mxPoint x="100" y="150" />
            </Array>
          </mxGeometry>
        </mxCell>
        <mxCell id="gi4ZsK4OsF2OfESMto85-12" value="nivelTecnologico" style="ellipse;whiteSpace=wrap;html=1;align=center;" parent="1" vertex="1">
          <mxGeometry x="-30" y="130" width="110" height="40" as="geometry" />
        </mxCell>
        <mxCell id="gi4ZsK4OsF2OfESMto85-13" value="" style="endArrow=none;html=1;rounded=0;exitX=0;exitY=0;exitDx=0;exitDy=0;" parent="1" source="gi4ZsK4OsF2OfESMto85-12" target="gi4ZsK4OsF2OfESMto85-14" edge="1">
          <mxGeometry relative="1" as="geometry">
            <mxPoint x="20" y="140" as="sourcePoint" />
            <mxPoint x="-40" y="110" as="targetPoint" />
            <Array as="points">
              <mxPoint x="-60" y="136" />
            </Array>
          </mxGeometry>
        </mxCell>
        <mxCell id="gi4ZsK4OsF2OfESMto85-14" value="color" style="ellipse;whiteSpace=wrap;html=1;align=center;" parent="1" vertex="1">
          <mxGeometry x="-110" y="80" width="100" height="40" as="geometry" />
        </mxCell>
        <mxCell id="gi4ZsK4OsF2OfESMto85-15" value="" style="endArrow=none;html=1;rounded=0;exitX=0;exitY=1;exitDx=0;exitDy=0;" parent="1" source="gi4ZsK4OsF2OfESMto85-12" target="gi4ZsK4OsF2OfESMto85-16" edge="1">
          <mxGeometry relative="1" as="geometry">
            <mxPoint y="140" as="sourcePoint" />
            <mxPoint x="-14" y="200" as="targetPoint" />
            <Array as="points">
              <mxPoint x="-14" y="195" />
            </Array>
          </mxGeometry>
        </mxCell>
        <mxCell id="gi4ZsK4OsF2OfESMto85-16" value="numero" style="ellipse;whiteSpace=wrap;html=1;align=center;" parent="1" vertex="1">
          <mxGeometry x="-87" y="180" width="54" height="30" as="geometry" />
        </mxCell>
        <mxCell id="gi4ZsK4OsF2OfESMto85-17" value="" style="endArrow=none;html=1;rounded=0;exitX=1;exitY=0.5;exitDx=0;exitDy=0;" parent="1" source="gi4ZsK4OsF2OfESMto85-1" target="gi4ZsK4OsF2OfESMto85-18" edge="1">
          <mxGeometry relative="1" as="geometry">
            <mxPoint x="240" y="140" as="sourcePoint" />
            <mxPoint x="340" y="200" as="targetPoint" />
          </mxGeometry>
        </mxCell>
        <mxCell id="gi4ZsK4OsF2OfESMto85-18" value="pertenece" style="shape=rhombus;double=1;perimeter=rhombusPerimeter;whiteSpace=wrap;html=1;align=center;" parent="1" vertex="1">
          <mxGeometry x="280" y="170" width="120" height="60" as="geometry" />
        </mxCell>
        <mxCell id="gi4ZsK4OsF2OfESMto85-19" value="" style="shape=link;html=1;rounded=0;exitX=1;exitY=0.5;exitDx=0;exitDy=0;" parent="1" source="gi4ZsK4OsF2OfESMto85-18" target="gi4ZsK4OsF2OfESMto85-22" edge="1">
          <mxGeometry relative="1" as="geometry">
            <mxPoint x="280" y="210" as="sourcePoint" />
            <mxPoint x="430" y="200" as="targetPoint" />
          </mxGeometry>
        </mxCell>
        <mxCell id="gi4ZsK4OsF2OfESMto85-22" value="Flota" style="shape=ext;margin=3;double=1;whiteSpace=wrap;html=1;align=center;" parent="1" vertex="1">
          <mxGeometry x="470" y="185" width="80" height="30" as="geometry" />
        </mxCell>
        <mxCell id="gi4ZsK4OsF2OfESMto85-23" value="(1,1)" style="text;html=1;align=center;verticalAlign=middle;resizable=0;points=[];autosize=1;strokeColor=none;fillColor=none;" parent="1" vertex="1">
          <mxGeometry x="182" y="174" width="50" height="30" as="geometry" />
        </mxCell>
        <mxCell id="gi4ZsK4OsF2OfESMto85-25" value="(1,n)" style="text;html=1;align=center;verticalAlign=middle;resizable=0;points=[];autosize=1;strokeColor=none;fillColor=none;" parent="1" vertex="1">
          <mxGeometry x="428" y="174" width="50" height="30" as="geometry" />
        </mxCell>
        <mxCell id="gi4ZsK4OsF2OfESMto85-26" value="" style="endArrow=none;html=1;rounded=0;exitX=0.25;exitY=0;exitDx=0;exitDy=0;" parent="1" source="gi4ZsK4OsF2OfESMto85-22" target="gi4ZsK4OsF2OfESMto85-27" edge="1">
          <mxGeometry relative="1" as="geometry">
            <mxPoint x="410" y="210" as="sourcePoint" />
            <mxPoint x="490" y="150" as="targetPoint" />
          </mxGeometry>
        </mxCell>
        <mxCell id="gi4ZsK4OsF2OfESMto85-27" value="codigoFlota" style="ellipse;whiteSpace=wrap;html=1;align=center;fontStyle=4;" parent="1" vertex="1">
          <mxGeometry x="450" y="140" width="80" height="30" as="geometry" />
        </mxCell>
        <mxCell id="gi4ZsK4OsF2OfESMto85-28" value="" style="endArrow=none;html=1;rounded=0;exitX=0.75;exitY=0;exitDx=0;exitDy=0;" parent="1" source="gi4ZsK4OsF2OfESMto85-22" target="gi4ZsK4OsF2OfESMto85-29" edge="1">
          <mxGeometry relative="1" as="geometry">
            <mxPoint x="400" y="210" as="sourcePoint" />
            <mxPoint x="550" y="130" as="targetPoint" />
            <Array as="points">
              <mxPoint x="530" y="170" />
              <mxPoint x="550" y="170" />
            </Array>
          </mxGeometry>
        </mxCell>
        <mxCell id="gi4ZsK4OsF2OfESMto85-29" value="destino" style="ellipse;whiteSpace=wrap;html=1;align=center;" parent="1" vertex="1">
          <mxGeometry x="510" y="110" width="80" height="30" as="geometry" />
        </mxCell>
        <mxCell id="gi4ZsK4OsF2OfESMto85-30" value="" style="endArrow=none;html=1;rounded=0;exitX=1;exitY=0.5;exitDx=0;exitDy=0;" parent="1" source="gi4ZsK4OsF2OfESMto85-22" target="gi4ZsK4OsF2OfESMto85-31" edge="1">
          <mxGeometry relative="1" as="geometry">
            <mxPoint x="400" y="210" as="sourcePoint" />
            <mxPoint x="590" y="200" as="targetPoint" />
          </mxGeometry>
        </mxCell>
        <mxCell id="gi4ZsK4OsF2OfESMto85-31" value="mision" style="ellipse;shape=doubleEllipse;margin=3;whiteSpace=wrap;html=1;align=center;" parent="1" vertex="1">
          <mxGeometry x="580" y="185" width="60" height="30" as="geometry" />
        </mxCell>
        <mxCell id="gi4ZsK4OsF2OfESMto85-36" value="Nave" style="shape=ext;margin=3;double=1;whiteSpace=wrap;html=1;align=center;" parent="1" vertex="1">
          <mxGeometry x="471" y="315" width="79" height="30" as="geometry" />
        </mxCell>
        <mxCell id="gi4ZsK4OsF2OfESMto85-37" value="" style="endArrow=none;html=1;rounded=0;entryX=0.114;entryY=1.014;entryDx=0;entryDy=0;exitX=0.5;exitY=0;exitDx=0;exitDy=0;entryPerimeter=0;" parent="1" source="gi4ZsK4OsF2OfESMto85-38" target="gi4ZsK4OsF2OfESMto85-36" edge="1">
          <mxGeometry relative="1" as="geometry">
            <mxPoint x="430" y="370" as="sourcePoint" />
            <mxPoint x="505" y="380" as="targetPoint" />
            <Array as="points">
              <mxPoint x="410" y="350" />
              <mxPoint x="480" y="350" />
            </Array>
          </mxGeometry>
        </mxCell>
        <mxCell id="gi4ZsK4OsF2OfESMto85-38" value="codigoNave" style="ellipse;whiteSpace=wrap;html=1;align=center;fontStyle=4;" parent="1" vertex="1">
          <mxGeometry x="360" y="360" width="100" height="40" as="geometry" />
        </mxCell>
        <mxCell id="gi4ZsK4OsF2OfESMto85-40" value="" style="endArrow=none;html=1;rounded=0;exitX=0.5;exitY=1;exitDx=0;exitDy=0;entryX=0.5;entryY=0;entryDx=0;entryDy=0;" parent="1" source="gi4ZsK4OsF2OfESMto85-22" target="gi4ZsK4OsF2OfESMto85-48" edge="1">
          <mxGeometry relative="1" as="geometry">
            <mxPoint x="420" y="240" as="sourcePoint" />
            <mxPoint x="510" y="240" as="targetPoint" />
          </mxGeometry>
        </mxCell>
        <mxCell id="gi4ZsK4OsF2OfESMto85-45" value="" style="endArrow=none;html=1;rounded=0;exitX=0.922;exitY=0.024;exitDx=0;exitDy=0;exitPerimeter=0;" parent="1" source="gi4ZsK4OsF2OfESMto85-36" target="gi4ZsK4OsF2OfESMto85-46" edge="1">
          <mxGeometry relative="1" as="geometry">
            <mxPoint x="430" y="240" as="sourcePoint" />
            <mxPoint x="600" y="323" as="targetPoint" />
            <Array as="points">
              <mxPoint x="544" y="290" />
              <mxPoint x="620" y="290" />
            </Array>
          </mxGeometry>
        </mxCell>
        <mxCell id="gi4ZsK4OsF2OfESMto85-46" value="velocidadMaxima" style="ellipse;whiteSpace=wrap;html=1;align=center;" parent="1" vertex="1">
          <mxGeometry x="556" y="278.5" width="110" height="25" as="geometry" />
        </mxCell>
        <mxCell id="gi4ZsK4OsF2OfESMto85-48" value="navega" style="shape=rhombus;double=1;perimeter=rhombusPerimeter;whiteSpace=wrap;html=1;align=center;" parent="1" vertex="1">
          <mxGeometry x="460.25" y="243" width="99.5" height="45" as="geometry" />
        </mxCell>
        <mxCell id="gi4ZsK4OsF2OfESMto85-50" value="" style="shape=link;html=1;rounded=0;exitX=0.5;exitY=1;exitDx=0;exitDy=0;entryX=0.5;entryY=0;entryDx=0;entryDy=0;" parent="1" source="gi4ZsK4OsF2OfESMto85-48" target="gi4ZsK4OsF2OfESMto85-36" edge="1">
          <mxGeometry relative="1" as="geometry">
            <mxPoint x="340" y="220" as="sourcePoint" />
            <mxPoint x="500" y="220" as="targetPoint" />
          </mxGeometry>
        </mxCell>
        <mxCell id="gi4ZsK4OsF2OfESMto85-52" value="(1,1)" style="text;html=1;align=center;verticalAlign=middle;resizable=0;points=[];autosize=1;strokeColor=none;fillColor=none;" parent="1" vertex="1">
          <mxGeometry x="500" y="210" width="50" height="30" as="geometry" />
        </mxCell>
        <mxCell id="gi4ZsK4OsF2OfESMto85-53" value="(1,n)" style="text;html=1;align=center;verticalAlign=middle;resizable=0;points=[];autosize=1;strokeColor=none;fillColor=none;" parent="1" vertex="1">
          <mxGeometry x="500" y="288" width="50" height="30" as="geometry" />
        </mxCell>
        <mxCell id="gi4ZsK4OsF2OfESMto85-54" value="" style="endArrow=none;html=1;rounded=0;entryX=0.25;entryY=1;entryDx=0;entryDy=0;exitX=1;exitY=0.5;exitDx=0;exitDy=0;" parent="1" source="gi4ZsK4OsF2OfESMto85-55" target="gi4ZsK4OsF2OfESMto85-36" edge="1">
          <mxGeometry relative="1" as="geometry">
            <mxPoint x="430" y="440" as="sourcePoint" />
            <mxPoint x="500" y="420" as="targetPoint" />
            <Array as="points">
              <mxPoint x="490" y="430" />
            </Array>
          </mxGeometry>
        </mxCell>
        <mxCell id="gi4ZsK4OsF2OfESMto85-55" value="energia_acumulada" style="ellipse;whiteSpace=wrap;html=1;align=center;" parent="1" vertex="1">
          <mxGeometry x="350" y="410" width="120" height="40" as="geometry" />
        </mxCell>
        <mxCell id="gi4ZsK4OsF2OfESMto85-58" value="" style="endArrow=none;html=1;rounded=0;exitX=0.5;exitY=1;exitDx=0;exitDy=0;entryX=1;entryY=0.5;entryDx=0;entryDy=0;" parent="1" source="gi4ZsK4OsF2OfESMto85-36" target="gi4ZsK4OsF2OfESMto85-59" edge="1">
          <mxGeometry relative="1" as="geometry">
            <mxPoint x="340" y="420" as="sourcePoint" />
            <mxPoint x="511" y="490" as="targetPoint" />
            <Array as="points">
              <mxPoint x="510" y="480" />
            </Array>
          </mxGeometry>
        </mxCell>
        <mxCell id="gi4ZsK4OsF2OfESMto85-59" value="Tiene" style="shape=rhombus;perimeter=rhombusPerimeter;whiteSpace=wrap;html=1;align=center;" parent="1" vertex="1">
          <mxGeometry x="464.5" y="460" width="91" height="40" as="geometry" />
        </mxCell>
        <mxCell id="gi4ZsK4OsF2OfESMto85-60" value="(0,1)" style="text;html=1;align=center;verticalAlign=middle;resizable=0;points=[];autosize=1;strokeColor=none;fillColor=none;fontSize=8;" parent="1" vertex="1">
          <mxGeometry x="510" y="347.5" width="40" height="20" as="geometry" />
        </mxCell>
        <mxCell id="gi4ZsK4OsF2OfESMto85-61" value="" style="endArrow=none;html=1;rounded=0;exitX=0;exitY=0.5;exitDx=0;exitDy=0;" parent="1" source="gi4ZsK4OsF2OfESMto85-59" target="gi4ZsK4OsF2OfESMto85-62" edge="1">
          <mxGeometry relative="1" as="geometry">
            <mxPoint x="165" y="400" as="sourcePoint" />
            <mxPoint x="285" y="520" as="targetPoint" />
            <Array as="points">
              <mxPoint x="285" y="480" />
            </Array>
          </mxGeometry>
        </mxCell>
        <mxCell id="gi4ZsK4OsF2OfESMto85-62" value="Capitan" style="whiteSpace=wrap;html=1;align=center;" parent="1" vertex="1">
          <mxGeometry x="235" y="530" width="100" height="40" as="geometry" />
        </mxCell>
        <mxCell id="gi4ZsK4OsF2OfESMto85-63" value="(1,1)" style="text;html=1;align=center;verticalAlign=middle;resizable=0;points=[];autosize=1;strokeColor=none;fillColor=none;" parent="1" vertex="1">
          <mxGeometry x="275" y="505" width="50" height="30" as="geometry" />
        </mxCell>
        <mxCell id="gi4ZsK4OsF2OfESMto85-64" value="" style="endArrow=none;html=1;rounded=0;exitX=0.25;exitY=1;exitDx=0;exitDy=0;" parent="1" source="gi4ZsK4OsF2OfESMto85-62" target="gi4ZsK4OsF2OfESMto85-65" edge="1">
          <mxGeometry relative="1" as="geometry">
            <mxPoint x="175" y="620" as="sourcePoint" />
            <mxPoint x="215" y="580" as="targetPoint" />
            <Array as="points">
              <mxPoint x="260" y="580" />
            </Array>
          </mxGeometry>
        </mxCell>
        <mxCell id="gi4ZsK4OsF2OfESMto85-65" value="nombre" style="ellipse;whiteSpace=wrap;html=1;align=center;" parent="1" vertex="1">
          <mxGeometry x="165" y="570" width="60" height="20" as="geometry" />
        </mxCell>
        <mxCell id="gi4ZsK4OsF2OfESMto85-66" value="" style="endArrow=none;html=1;rounded=0;exitX=0.5;exitY=1;exitDx=0;exitDy=0;" parent="1" source="gi4ZsK4OsF2OfESMto85-1" target="gi4ZsK4OsF2OfESMto85-67" edge="1">
          <mxGeometry relative="1" as="geometry">
            <mxPoint x="110" y="300" as="sourcePoint" />
            <mxPoint x="140" y="340" as="targetPoint" />
            <Array as="points">
              <mxPoint x="140" y="360" />
              <mxPoint x="130" y="360" />
              <mxPoint x="85" y="360" />
            </Array>
          </mxGeometry>
        </mxCell>
        <mxCell id="gi4ZsK4OsF2OfESMto85-67" value="trabaja" style="shape=rhombus;perimeter=rhombusPerimeter;whiteSpace=wrap;html=1;align=center;" parent="1" vertex="1">
          <mxGeometry x="25" y="390" width="120" height="60" as="geometry" />
        </mxCell>
        <mxCell id="gi4ZsK4OsF2OfESMto85-68" value="" style="endArrow=none;html=1;rounded=0;exitX=0.5;exitY=1;exitDx=0;exitDy=0;entryX=0;entryY=0.5;entryDx=0;entryDy=0;" parent="1" source="gi4ZsK4OsF2OfESMto85-67" target="gi4ZsK4OsF2OfESMto85-62" edge="1">
          <mxGeometry relative="1" as="geometry">
            <mxPoint x="165" y="460" as="sourcePoint" />
            <mxPoint x="325" y="460" as="targetPoint" />
            <Array as="points">
              <mxPoint x="85" y="550" />
            </Array>
          </mxGeometry>
        </mxCell>
        <mxCell id="gi4ZsK4OsF2OfESMto85-69" value="(1,1)" style="text;html=1;align=center;verticalAlign=middle;resizable=0;points=[];autosize=1;strokeColor=none;fillColor=none;" parent="1" vertex="1">
          <mxGeometry x="95" y="258" width="50" height="30" as="geometry" />
        </mxCell>
        <mxCell id="gi4ZsK4OsF2OfESMto85-70" value="(1,n)" style="text;html=1;align=center;verticalAlign=middle;resizable=0;points=[];autosize=1;strokeColor=none;fillColor=none;" parent="1" vertex="1">
          <mxGeometry x="178" y="524" width="50" height="30" as="geometry" />
        </mxCell>
        <mxCell id="gi4ZsK4OsF2OfESMto85-71" value="" style="endArrow=none;html=1;rounded=0;exitX=0.75;exitY=1;exitDx=0;exitDy=0;entryX=0;entryY=0.5;entryDx=0;entryDy=0;" parent="1" source="gi4ZsK4OsF2OfESMto85-62" target="gi4ZsK4OsF2OfESMto85-72" edge="1">
          <mxGeometry relative="1" as="geometry">
            <mxPoint x="355" y="554" as="sourcePoint" />
            <mxPoint x="385" y="614" as="targetPoint" />
            <Array as="points">
              <mxPoint x="310" y="580" />
            </Array>
          </mxGeometry>
        </mxCell>
        <mxCell id="gi4ZsK4OsF2OfESMto85-72" value="idCapitan" style="ellipse;whiteSpace=wrap;html=1;align=center;fontStyle=4" parent="1" vertex="1">
          <mxGeometry x="350" y="560" width="100" height="40" as="geometry" />
        </mxCell>
        <mxCell id="gi4ZsK4OsF2OfESMto85-73" value="" style="endArrow=none;html=1;rounded=0;entryX=0;entryY=0.5;entryDx=0;entryDy=0;exitX=1;exitY=0.5;exitDx=0;exitDy=0;" parent="1" source="gi4ZsK4OsF2OfESMto85-74" target="gi4ZsK4OsF2OfESMto85-36" edge="1">
          <mxGeometry relative="1" as="geometry">
            <mxPoint x="330" y="330" as="sourcePoint" />
            <mxPoint x="440" y="340" as="targetPoint" />
          </mxGeometry>
        </mxCell>
        <mxCell id="gi4ZsK4OsF2OfESMto85-74" value="remolca" style="shape=rhombus;perimeter=rhombusPerimeter;whiteSpace=wrap;html=1;align=center;" parent="1" vertex="1">
          <mxGeometry x="215" y="300" width="120" height="60" as="geometry" />
        </mxCell>
        <mxCell id="gi4ZsK4OsF2OfESMto85-75" value="es remolcada" style="text;html=1;align=center;verticalAlign=middle;resizable=0;points=[];autosize=1;strokeColor=none;fillColor=none;" parent="1" vertex="1">
          <mxGeometry x="370" y="310" width="100" height="30" as="geometry" />
        </mxCell>
        <mxCell id="gi4ZsK4OsF2OfESMto85-76" value="" style="endArrow=none;html=1;rounded=0;entryX=0.24;entryY=-0.005;entryDx=0;entryDy=0;entryPerimeter=0;exitX=0.5;exitY=0;exitDx=0;exitDy=0;" parent="1" source="gi4ZsK4OsF2OfESMto85-74" target="gi4ZsK4OsF2OfESMto85-36" edge="1">
          <mxGeometry relative="1" as="geometry">
            <mxPoint x="320" y="300" as="sourcePoint" />
            <mxPoint x="450" y="300" as="targetPoint" />
            <Array as="points">
              <mxPoint x="490" y="300" />
              <mxPoint x="490" y="310" />
            </Array>
          </mxGeometry>
        </mxCell>
        <mxCell id="gi4ZsK4OsF2OfESMto85-77" value="remolca a" style="text;html=1;align=center;verticalAlign=middle;resizable=0;points=[];autosize=1;strokeColor=none;fillColor=none;" parent="1" vertex="1">
          <mxGeometry x="280" y="280" width="80" height="30" as="geometry" />
        </mxCell>
        <mxCell id="gi4ZsK4OsF2OfESMto85-78" value="(1,1)" style="text;html=1;align=center;verticalAlign=middle;resizable=0;points=[];autosize=1;strokeColor=none;fillColor=none;" parent="1" vertex="1">
          <mxGeometry x="320" y="330" width="50" height="30" as="geometry" />
        </mxCell>
        <mxCell id="gi4ZsK4OsF2OfESMto85-79" value="(1,n)" style="text;html=1;align=center;verticalAlign=middle;resizable=0;points=[];autosize=1;strokeColor=none;fillColor=none;" parent="1" vertex="1">
          <mxGeometry x="430" y="276" width="50" height="30" as="geometry" />
        </mxCell>
        <mxCell id="gi4ZsK4OsF2OfESMto85-80" value="" style="endArrow=none;html=1;rounded=0;entryX=0.317;entryY=0.177;entryDx=0;entryDy=0;exitX=0.5;exitY=1;exitDx=0;exitDy=0;entryPerimeter=0;" parent="1" source="gi4ZsK4OsF2OfESMto85-81" target="gi4ZsK4OsF2OfESMto85-74" edge="1">
          <mxGeometry relative="1" as="geometry">
            <mxPoint x="220" y="290" as="sourcePoint" />
            <mxPoint x="350" y="240" as="targetPoint" />
            <Array as="points">
              <mxPoint x="200" y="310" />
            </Array>
          </mxGeometry>
        </mxCell>
        <mxCell id="gi4ZsK4OsF2OfESMto85-81" value="fechaRemolque" style="ellipse;whiteSpace=wrap;html=1;align=center;" parent="1" vertex="1">
          <mxGeometry x="150" y="260" width="100" height="38" as="geometry" />
        </mxCell>
        <mxCell id="gi4ZsK4OsF2OfESMto85-84" value="" style="endArrow=none;html=1;rounded=0;exitX=1;exitY=0.5;exitDx=0;exitDy=0;entryX=0;entryY=0.5;entryDx=0;entryDy=0;" parent="1" source="gi4ZsK4OsF2OfESMto85-36" target="gi4ZsK4OsF2OfESMto85-90" edge="1">
          <mxGeometry relative="1" as="geometry">
            <mxPoint x="460" y="310" as="sourcePoint" />
            <mxPoint x="589.9999999999998" y="330" as="targetPoint" />
          </mxGeometry>
        </mxCell>
        <mxCell id="gi4ZsK4OsF2OfESMto85-90" value="realiza" style="shape=rhombus;perimeter=rhombusPerimeter;whiteSpace=wrap;html=1;align=center;" parent="1" vertex="1">
          <mxGeometry x="588" y="312.5" width="80" height="35" as="geometry" />
        </mxCell>
        <mxCell id="gi4ZsK4OsF2OfESMto85-91" value="" style="endArrow=none;html=1;rounded=0;exitX=1;exitY=0.5;exitDx=0;exitDy=0;" parent="1" source="gi4ZsK4OsF2OfESMto85-90" target="gi4ZsK4OsF2OfESMto85-92" edge="1">
          <mxGeometry relative="1" as="geometry">
            <mxPoint x="680" y="370" as="sourcePoint" />
            <mxPoint x="750" y="330" as="targetPoint" />
          </mxGeometry>
        </mxCell>
        <mxCell id="gi4ZsK4OsF2OfESMto85-92" value="Maniobra" style="whiteSpace=wrap;html=1;align=center;" parent="1" vertex="1">
          <mxGeometry x="700" y="314" width="100" height="32.5" as="geometry" />
        </mxCell>
        <mxCell id="gi4ZsK4OsF2OfESMto85-93" value="" style="endArrow=none;html=1;rounded=0;exitX=0.25;exitY=1;exitDx=0;exitDy=0;" parent="1" source="gi4ZsK4OsF2OfESMto85-92" target="gi4ZsK4OsF2OfESMto85-94" edge="1">
          <mxGeometry relative="1" as="geometry">
            <mxPoint x="580" y="370" as="sourcePoint" />
            <mxPoint x="725" y="370" as="targetPoint" />
          </mxGeometry>
        </mxCell>
        <mxCell id="gi4ZsK4OsF2OfESMto85-94" value="nombre" style="ellipse;whiteSpace=wrap;html=1;align=center;fontStyle=4;" parent="1" vertex="1">
          <mxGeometry x="690" y="360" width="70" height="30" as="geometry" />
        </mxCell>
        <mxCell id="gi4ZsK4OsF2OfESMto85-95" value="" style="endArrow=none;html=1;rounded=0;exitX=0.25;exitY=0;exitDx=0;exitDy=0;" parent="1" source="gi4ZsK4OsF2OfESMto85-92" target="gi4ZsK4OsF2OfESMto85-97" edge="1">
          <mxGeometry relative="1" as="geometry">
            <mxPoint x="570" y="360" as="sourcePoint" />
            <mxPoint x="725" y="270" as="targetPoint" />
          </mxGeometry>
        </mxCell>
        <mxCell id="gi4ZsK4OsF2OfESMto85-97" value="consumoEnergia" style="ellipse;whiteSpace=wrap;html=1;align=center;" parent="1" vertex="1">
          <mxGeometry x="675" y="260" width="100" height="30" as="geometry" />
        </mxCell>
        <mxCell id="gi4ZsK4OsF2OfESMto85-98" value="(1,n)" style="text;html=1;align=center;verticalAlign=middle;resizable=0;points=[];autosize=1;strokeColor=none;fillColor=none;" parent="1" vertex="1">
          <mxGeometry x="655" y="328" width="50" height="30" as="geometry" />
        </mxCell>
        <mxCell id="gi4ZsK4OsF2OfESMto85-99" value="(0,n)" style="text;html=1;align=center;verticalAlign=middle;resizable=0;points=[];autosize=1;strokeColor=none;fillColor=none;" parent="1" vertex="1">
          <mxGeometry x="540" y="324" width="50" height="30" as="geometry" />
        </mxCell>
        <mxCell id="gi4ZsK4OsF2OfESMto85-100" value="Planeta" style="whiteSpace=wrap;html=1;align=center;" parent="1" vertex="1">
          <mxGeometry x="82" y="690" width="100" height="40" as="geometry" />
        </mxCell>
        <mxCell id="gi4ZsK4OsF2OfESMto85-102" value="" style="endArrow=none;html=1;rounded=0;exitX=0.25;exitY=1;exitDx=0;exitDy=0;" parent="1" source="gi4ZsK4OsF2OfESMto85-100" target="gi4ZsK4OsF2OfESMto85-103" edge="1">
          <mxGeometry relative="1" as="geometry">
            <mxPoint x="30" y="610" as="sourcePoint" />
            <mxPoint x="107" y="780" as="targetPoint" />
          </mxGeometry>
        </mxCell>
        <mxCell id="gi4ZsK4OsF2OfESMto85-103" value="nombreCientifico" style="ellipse;whiteSpace=wrap;html=1;align=center;fontStyle=4;" parent="1" vertex="1">
          <mxGeometry x="57" y="760" width="100" height="40" as="geometry" />
        </mxCell>
        <mxCell id="gi4ZsK4OsF2OfESMto85-104" value="" style="endArrow=none;html=1;rounded=0;exitX=0.5;exitY=1;exitDx=0;exitDy=0;" parent="1" source="gi4ZsK4OsF2OfESMto85-100" target="gi4ZsK4OsF2OfESMto85-105" edge="1">
          <mxGeometry relative="1" as="geometry">
            <mxPoint x="20" y="750" as="sourcePoint" />
            <mxPoint x="190" y="780" as="targetPoint" />
            <Array as="points">
              <mxPoint x="132" y="740" />
              <mxPoint x="190" y="740" />
            </Array>
          </mxGeometry>
        </mxCell>
        <mxCell id="gi4ZsK4OsF2OfESMto85-105" value="poblacionTotal" style="ellipse;whiteSpace=wrap;html=1;align=center;" parent="1" vertex="1">
          <mxGeometry x="140" y="790" width="100" height="40" as="geometry" />
        </mxCell>
        <mxCell id="gi4ZsK4OsF2OfESMto85-106" value="" style="endArrow=none;html=1;rounded=0;exitX=0.25;exitY=0;exitDx=0;exitDy=0;" parent="1" source="gi4ZsK4OsF2OfESMto85-100" target="gi4ZsK4OsF2OfESMto85-107" edge="1">
          <mxGeometry relative="1" as="geometry">
            <mxPoint x="20" y="750" as="sourcePoint" />
            <mxPoint x="107" y="650" as="targetPoint" />
            <Array as="points">
              <mxPoint x="107" y="680" />
              <mxPoint x="60" y="680" />
            </Array>
          </mxGeometry>
        </mxCell>
        <mxCell id="gi4ZsK4OsF2OfESMto85-107" value="coordenada" style="ellipse;whiteSpace=wrap;html=1;align=center;" parent="1" vertex="1">
          <mxGeometry x="10" y="640" width="100" height="30" as="geometry" />
        </mxCell>
        <mxCell id="gi4ZsK4OsF2OfESMto85-108" value="" style="endArrow=none;html=1;rounded=0;exitX=0.872;exitY=0.018;exitDx=0;exitDy=0;exitPerimeter=0;" parent="1" source="gi4ZsK4OsF2OfESMto85-100" target="gi4ZsK4OsF2OfESMto85-109" edge="1">
          <mxGeometry relative="1" as="geometry">
            <mxPoint x="20" y="750" as="sourcePoint" />
            <mxPoint x="180" y="650" as="targetPoint" />
            <Array as="points">
              <mxPoint x="169" y="680" />
              <mxPoint x="260" y="680" />
            </Array>
          </mxGeometry>
        </mxCell>
        <mxCell id="gi4ZsK4OsF2OfESMto85-109" value="nombreVulgar" style="ellipse;whiteSpace=wrap;html=1;align=center;" parent="1" vertex="1">
          <mxGeometry x="210" y="640" width="100" height="30" as="geometry" />
        </mxCell>
        <mxCell id="gi4ZsK4OsF2OfESMto85-110" value="montaña" style="ellipse;shape=doubleEllipse;margin=3;whiteSpace=wrap;html=1;align=center;" parent="1" vertex="1">
          <mxGeometry x="-40" y="730" width="100" height="40" as="geometry" />
        </mxCell>
        <mxCell id="gi4ZsK4OsF2OfESMto85-111" value="" style="endArrow=none;html=1;rounded=0;exitX=0.5;exitY=0;exitDx=0;exitDy=0;entryX=0;entryY=0.75;entryDx=0;entryDy=0;" parent="1" source="gi4ZsK4OsF2OfESMto85-110" target="gi4ZsK4OsF2OfESMto85-100" edge="1">
          <mxGeometry relative="1" as="geometry">
            <mxPoint x="20" y="750" as="sourcePoint" />
            <mxPoint x="180" y="750" as="targetPoint" />
            <Array as="points">
              <mxPoint x="10" y="720" />
            </Array>
          </mxGeometry>
        </mxCell>
        <mxCell id="gi4ZsK4OsF2OfESMto85-112" value="" style="endArrow=none;html=1;rounded=0;exitX=0;exitY=1;exitDx=0;exitDy=0;" parent="1" source="gi4ZsK4OsF2OfESMto85-110" target="gi4ZsK4OsF2OfESMto85-113" edge="1">
          <mxGeometry relative="1" as="geometry">
            <mxPoint x="20" y="750" as="sourcePoint" />
            <mxPoint x="-25" y="800" as="targetPoint" />
          </mxGeometry>
        </mxCell>
        <mxCell id="gi4ZsK4OsF2OfESMto85-113" value="nombre" style="ellipse;whiteSpace=wrap;html=1;align=center;" parent="1" vertex="1">
          <mxGeometry x="-63" y="790" width="75" height="30" as="geometry" />
        </mxCell>
        <mxCell id="gi4ZsK4OsF2OfESMto85-114" value="" style="endArrow=none;html=1;rounded=0;exitX=1;exitY=1;exitDx=0;exitDy=0;" parent="1" source="gi4ZsK4OsF2OfESMto85-110" target="gi4ZsK4OsF2OfESMto85-115" edge="1">
          <mxGeometry relative="1" as="geometry">
            <mxPoint x="20" y="750" as="sourcePoint" />
            <mxPoint x="45" y="830" as="targetPoint" />
          </mxGeometry>
        </mxCell>
        <mxCell id="gi4ZsK4OsF2OfESMto85-115" value="altura" style="ellipse;whiteSpace=wrap;html=1;align=center;" parent="1" vertex="1">
          <mxGeometry x="13" y="810" width="65" height="30" as="geometry" />
        </mxCell>
        <mxCell id="gi4ZsK4OsF2OfESMto85-118" value="" style="endArrow=none;html=1;rounded=0;exitX=0;exitY=0.5;exitDx=0;exitDy=0;" parent="1" source="gi4ZsK4OsF2OfESMto85-1" target="gi4ZsK4OsF2OfESMto85-119" edge="1">
          <mxGeometry relative="1" as="geometry">
            <mxPoint x="20" y="290" as="sourcePoint" />
            <mxPoint x="-221.46949029737902" y="290" as="targetPoint" />
            <Array as="points">
              <mxPoint x="20" y="200" />
              <mxPoint x="20" y="210" />
              <mxPoint y="210" />
              <mxPoint x="-30" y="210" />
              <mxPoint x="-30" y="380" />
              <mxPoint y="380" />
            </Array>
          </mxGeometry>
        </mxCell>
        <mxCell id="gi4ZsK4OsF2OfESMto85-119" value="ocupa" style="shape=rhombus;perimeter=rhombusPerimeter;whiteSpace=wrap;html=1;align=center;" parent="1" vertex="1">
          <mxGeometry x="-59.999490297379026" y="570" width="120" height="60" as="geometry" />
        </mxCell>
        <mxCell id="gi4ZsK4OsF2OfESMto85-120" value="" style="endArrow=none;html=1;rounded=0;exitX=1;exitY=0.5;exitDx=0;exitDy=0;entryX=0.5;entryY=0;entryDx=0;entryDy=0;" parent="1" source="gi4ZsK4OsF2OfESMto85-119" target="gi4ZsK4OsF2OfESMto85-100" edge="1">
          <mxGeometry relative="1" as="geometry">
            <mxPoint x="-170" y="480" as="sourcePoint" />
            <mxPoint x="-10" y="480" as="targetPoint" />
            <Array as="points">
              <mxPoint x="132" y="600" />
            </Array>
          </mxGeometry>
        </mxCell>
        <mxCell id="gi4ZsK4OsF2OfESMto85-121" value="(1,1)" style="text;html=1;align=center;verticalAlign=middle;resizable=0;points=[];autosize=1;strokeColor=none;fillColor=none;" parent="1" vertex="1">
          <mxGeometry x="90" y="610" width="50" height="30" as="geometry" />
        </mxCell>
        <mxCell id="gi4ZsK4OsF2OfESMto85-122" value="(1,1)" style="text;html=1;align=center;verticalAlign=middle;resizable=0;points=[];autosize=1;strokeColor=none;fillColor=none;" parent="1" vertex="1">
          <mxGeometry x="35" y="198" width="50" height="30" as="geometry" />
        </mxCell>
        <mxCell id="gi4ZsK4OsF2OfESMto85-125" value="Raza" style="whiteSpace=wrap;html=1;align=center;" parent="1" vertex="1">
          <mxGeometry x="440" y="690" width="100" height="40" as="geometry" />
        </mxCell>
        <mxCell id="gi4ZsK4OsF2OfESMto85-126" value="" style="endArrow=none;html=1;rounded=0;" parent="1" target="gi4ZsK4OsF2OfESMto85-127" edge="1">
          <mxGeometry relative="1" as="geometry">
            <mxPoint x="470" y="690" as="sourcePoint" />
            <mxPoint x="515" y="650" as="targetPoint" />
            <Array as="points">
              <mxPoint x="470" y="670" />
              <mxPoint x="460" y="670" />
            </Array>
          </mxGeometry>
        </mxCell>
        <mxCell id="gi4ZsK4OsF2OfESMto85-127" value="nombreCientifico" style="ellipse;whiteSpace=wrap;html=1;align=center;fontStyle=4;" parent="1" vertex="1">
          <mxGeometry x="408.9999999999998" y="620" width="100" height="40" as="geometry" />
        </mxCell>
        <mxCell id="gi4ZsK4OsF2OfESMto85-130" value="" style="endArrow=none;html=1;rounded=0;exitX=1;exitY=0.5;exitDx=0;exitDy=0;" parent="1" source="gi4ZsK4OsF2OfESMto85-100" target="gi4ZsK4OsF2OfESMto85-131" edge="1">
          <mxGeometry relative="1" as="geometry">
            <mxPoint x="190" y="580" as="sourcePoint" />
            <mxPoint x="250" y="710" as="targetPoint" />
          </mxGeometry>
        </mxCell>
        <mxCell id="gi4ZsK4OsF2OfESMto85-131" value="vive" style="shape=rhombus;perimeter=rhombusPerimeter;whiteSpace=wrap;html=1;align=center;" parent="1" vertex="1">
          <mxGeometry x="250" y="680" width="120" height="60" as="geometry" />
        </mxCell>
        <mxCell id="gi4ZsK4OsF2OfESMto85-132" value="" style="endArrow=none;html=1;rounded=0;exitX=1;exitY=0.5;exitDx=0;exitDy=0;entryX=0;entryY=0.5;entryDx=0;entryDy=0;" parent="1" source="gi4ZsK4OsF2OfESMto85-131" target="gi4ZsK4OsF2OfESMto85-125" edge="1">
          <mxGeometry relative="1" as="geometry">
            <mxPoint x="409.9999999999998" y="710" as="sourcePoint" />
            <mxPoint x="415" y="580" as="targetPoint" />
          </mxGeometry>
        </mxCell>
        <mxCell id="gi4ZsK4OsF2OfESMto85-133" value="(1,n)" style="text;html=1;align=center;verticalAlign=middle;resizable=0;points=[];autosize=1;strokeColor=none;fillColor=none;" parent="1" vertex="1">
          <mxGeometry x="395" y="688" width="50" height="30" as="geometry" />
        </mxCell>
        <mxCell id="gi4ZsK4OsF2OfESMto85-134" value="(1,n)" style="text;html=1;align=center;verticalAlign=middle;resizable=0;points=[];autosize=1;strokeColor=none;fillColor=none;" parent="1" vertex="1">
          <mxGeometry x="175" y="687" width="50" height="30" as="geometry" />
        </mxCell>
        <mxCell id="gi4ZsK4OsF2OfESMto85-135" value="" style="endArrow=none;html=1;rounded=0;exitX=0.25;exitY=1;exitDx=0;exitDy=0;" parent="1" source="gi4ZsK4OsF2OfESMto85-125" target="gi4ZsK4OsF2OfESMto85-136" edge="1">
          <mxGeometry relative="1" as="geometry">
            <mxPoint x="380" y="640" as="sourcePoint" />
            <mxPoint x="465" y="760" as="targetPoint" />
            <Array as="points">
              <mxPoint x="465" y="740" />
              <mxPoint x="450" y="740" />
            </Array>
          </mxGeometry>
        </mxCell>
        <mxCell id="gi4ZsK4OsF2OfESMto85-136" value="porcentajePoblacion" style="ellipse;whiteSpace=wrap;html=1;align=center;" parent="1" vertex="1">
          <mxGeometry x="387.5" y="750" width="125" height="40" as="geometry" />
        </mxCell>
        <mxCell id="gi4ZsK4OsF2OfESMto85-137" value="" style="endArrow=none;html=1;rounded=0;exitX=1;exitY=0.5;exitDx=0;exitDy=0;" parent="1" source="gi4ZsK4OsF2OfESMto85-125" target="gi4ZsK4OsF2OfESMto85-138" edge="1">
          <mxGeometry relative="1" as="geometry">
            <mxPoint x="545" y="709.86" as="sourcePoint" />
            <mxPoint x="705" y="709.86" as="targetPoint" />
          </mxGeometry>
        </mxCell>
        <mxCell id="gi4ZsK4OsF2OfESMto85-138" value="habilidad" style="ellipse;shape=doubleEllipse;margin=3;whiteSpace=wrap;html=1;align=center;" parent="1" vertex="1">
          <mxGeometry x="572.5" y="695.07" width="75" height="29.86" as="geometry" />
        </mxCell>
        <mxCell id="iUXEeAhFdVgC99OL1xXg-1" value="" style="endArrow=none;html=1;rounded=0;exitX=0.5;exitY=1;exitDx=0;exitDy=0;" edge="1" parent="1" source="gi4ZsK4OsF2OfESMto85-62" target="iUXEeAhFdVgC99OL1xXg-2">
          <mxGeometry relative="1" as="geometry">
            <mxPoint x="200" y="630" as="sourcePoint" />
            <mxPoint x="285" y="640" as="targetPoint" />
          </mxGeometry>
        </mxCell>
        <mxCell id="iUXEeAhFdVgC99OL1xXg-2" value="nacido" style="shape=rhombus;perimeter=rhombusPerimeter;whiteSpace=wrap;html=1;align=center;" vertex="1" parent="1">
          <mxGeometry x="242.5" y="590" width="85" height="40" as="geometry" />
        </mxCell>
        <mxCell id="iUXEeAhFdVgC99OL1xXg-3" value="" style="endArrow=none;html=1;rounded=0;exitX=0;exitY=0.5;exitDx=0;exitDy=0;entryX=0.632;entryY=-0.005;entryDx=0;entryDy=0;entryPerimeter=0;" edge="1" parent="1" source="iUXEeAhFdVgC99OL1xXg-2" target="gi4ZsK4OsF2OfESMto85-100">
          <mxGeometry relative="1" as="geometry">
            <mxPoint x="240" y="610" as="sourcePoint" />
            <mxPoint x="360" y="700" as="targetPoint" />
            <Array as="points">
              <mxPoint x="145" y="610" />
            </Array>
          </mxGeometry>
        </mxCell>
        <mxCell id="iUXEeAhFdVgC99OL1xXg-4" value="(0,1)" style="text;html=1;align=center;verticalAlign=middle;resizable=0;points=[];autosize=1;strokeColor=none;fillColor=none;fontSize=9;" vertex="1" parent="1">
          <mxGeometry x="140" y="660" width="40" height="20" as="geometry" />
        </mxCell>
        <mxCell id="iUXEeAhFdVgC99OL1xXg-5" value="(1,n)" style="text;html=1;align=center;verticalAlign=middle;resizable=0;points=[];autosize=1;strokeColor=none;fillColor=none;fontSize=8;" vertex="1" parent="1">
          <mxGeometry x="290" y="580" width="40" height="20" as="geometry" />
        </mxCell>
      </root>
    </mxGraphModel>
  </diagram>
</mxfile>
